<?xml version="1.0" ?><svg id="Layer_1" style="enable-background:new 0 0 130 130;" version="1.1" viewBox="0 0 130 130" xml:space="preserve" xmlns="http://www.w3.org/2000/svg" xmlns:xlink="http://www.w3.org/1999/xlink"><style type="text/css">
	.st0{fill:#F49C20;}
	.st1{fill:#EC7B24;}
	.st2{fill:#FFFFFF;}
	.st3{fill:#05B0A6;}
	.st4{fill:#545E70;}
	.st5{fill:#626C77;}
	.st6{fill:#454E5C;}
	.st7{fill:#F15F5E;}
	.st8{fill:#FCD65E;}
	.st9{fill:#E5B641;}
	.st10{fill:#E6E8EB;}
	.st11{fill:#CFD5DF;}
	.st12{fill:#BED530;}
	.st13{fill:#ACC437;}
	.st14{fill:#F06197;}
	.st15{fill:#D9B9A9;}
	.st16{fill:#D6AB9A;}
	.st17{fill:#C49787;}
	.st18{fill:#9377B6;}
	.st19{fill:#EDC34E;}
	.st20{fill:#0795CE;}
	.st21{fill:#17B6EA;}
	.st22{fill:#8663A7;}
	.st23{fill:#6D558C;}
	.st24{fill:#D7E14A;}
	.st25{fill:#42A3DB;}
	.st26{fill:#347CBE;}
	.st27{fill:#EE3E88;}
	.st28{fill:#49C7EF;}
	.st29{fill:#FFCD0A;}
	.st30{fill:#F6AF1A;}
	.st31{fill:#F04D45;}
	.st32{fill:#029A9C;}
	.st33{fill:#068E8E;}
	.st34{fill:#A34A9B;}
	.st35{fill:#893886;}
	.st36{fill:#C6DFDC;}
	.st37{fill:#95CECD;}
	.st38{fill:#CD2F30;}
	.st39{fill:#9AC23E;}
	.st40{fill:#6DA542;}
	.st41{fill:#5B4B57;}
	.st42{fill:#6B5969;}
	.st43{fill:#7D6C7C;}
	.st44{fill:#6EA4BB;}
	.st45{fill:#ACB2B9;}
	.st46{fill:#E2247E;}
	.st47{fill:#3D9C46;}
	.st48{fill:#1C8141;}
	.st49{fill:#1F68B0;}
	.st50{fill:#2A519C;}
	.st51{fill:none;}
	.st52{fill:#DEA075;}
	.st53{fill:#EEB496;}
	.st54{fill:#7EBDB9;}
	.st55{fill:#D28F29;}
	.st56{fill:#6D9583;}
	.st57{fill:#55816C;}
	.st58{opacity:0.1;}
	.st59{fill:#010101;}
	.st60{opacity:0.3;}
	.st61{fill:#EBCFC2;}
	.st62{fill:#C79685;}
	.st63{fill:#4B93AC;}
	.st64{fill:#CD9E8E;}
	.st65{fill:none;stroke:#545E70;stroke-width:3.5;stroke-miterlimit:10;}
	.st66{fill:#53B95A;}
	.st67{fill:#E2B843;}
	.st68{fill:#8ABCCE;}
	.st69{fill:#EFBA50;}
	.st70{fill:#545B86;}
	.st71{fill:#4D4D79;}
	.st72{fill:#2F81C4;}
	.st73{opacity:5.000000e-002;}
	.st74{fill:#C91979;}
	.st75{fill:#204B8E;}
	.st76{fill:#F6E7C6;}
	.st77{fill:#EBD3B1;}
	.st78{fill:#C89A8B;}
	.st79{fill:#7ABBB6;}
	.st80{fill:#C27E5D;}
	.st81{fill:#234591;}
	.st82{fill:#9EA6AD;}
	.st83{fill:#BF272E;}
	.st84{fill:#DCC08E;}
	.st85{fill:#B52431;}
	.st86{fill:#34BDB3;}
	.st87{fill:#068D8C;}
	.st88{fill:#A4B83A;}
</style><g><g><g><circle class="st8" cx="65" cy="65" r="64"/></g></g><g><g><path class="st9" d="M128.6,72.3L82.3,26.1c0,0-16.7-2.5-35.1,0.4L33.1,99.9l29,29c1,0,1.9,0.1,2.9,0.1     C97.9,129,124.9,104.2,128.6,72.3z"/></g></g><g><g><g><g><g><path class="st4" d="M92.7,72H37.3V47.5C37.3,32.3,49.8,20,65,20s27.7,12.3,27.7,27.5V72z M46.3,63h37.3V47.5        C83.7,37.3,75.3,29,65,29s-18.7,8.3-18.7,18.5V63z"/></g></g></g></g><g><g><g><path class="st5" d="M92.7,47.5C92.7,32.3,80.2,20,65,20v2.5c13.9,0,25.2,11.2,25.2,25v22.1H65V72h27.7V47.5z"/></g></g><g><g><path class="st5" d="M39.8,69.5V47.5c0-13.8,11.3-25,25.2-25V20c-15.2,0-27.7,12.3-27.7,27.5V72H65v-2.5H39.8z"/></g></g><g><g><path class="st6" d="M86.2,47.5c0-11.6-9.5-21-21.2-21V29c10.3,0,18.7,8.3,18.7,18.5V63H65v2.5h21.2V47.5z"/></g></g><g><g><path class="st6" d="M46.3,63V47.5C46.3,37.3,54.7,29,65,29v-2.5c-11.7,0-21.2,9.4-21.2,21v18.1H65V63H46.3z"/></g></g></g><g><g><g><g><path class="st10" d="M97.5,59.6v38.5c0,1.7-1.4,3.1-3.1,3.1H35.6c-1.7,0-3.1-1.4-3.1-3.1V59.6c0-1.7,1.4-3.1,3.1-3.1h58.9        C96.1,56.6,97.5,58,97.5,59.6z"/></g></g></g></g><g><g><g><path class="st11" d="M97.1,99.6L69.3,71.8l-8.8,17.6l11.8,11.8h13.9l0.4-0.4l0.4,0.4h7.4C95.6,101.2,96.6,100.6,97.1,99.6z"/></g></g></g><g><g><g><g><g><path class="st10" d="M50.8,59.6v38.5c0,1.7-1.4,3.1-3.1,3.1H35.6c-1.7,0-3.1-1.4-3.1-3.1V59.6c0-1.7,1.4-3.1,3.1-3.1h12.1         C49.4,56.6,50.8,58,50.8,59.6z"/></g></g></g></g><g><g><g><g><path class="st2" d="M36.9,59.6v38.5c0,1.7,0.8,3.1,1.8,3.1h-3c-1.7,0-3.1-1.4-3.1-3.1V59.6c0-1.7,1.4-3.1,3.1-3.1h3         C37.6,56.6,36.9,58,36.9,59.6z"/></g></g></g><g><g><g><path class="st11" d="M50.8,59.6v38.5c0,1.7-1.4,3.1-3,3.1h-3c1,0,1.7-1.4,1.7-3.1V59.6c0-1.7-0.8-3.1-1.7-3.1h3         C49.4,56.6,50.8,58,50.8,59.6z"/></g></g></g></g></g><g><g><g><g><g><path class="st10" d="M97.5,59.6v38.5c0,1.7-1.4,3.1-3.1,3.1H82.3c-1.7,0-3.1-1.4-3.1-3.1V59.6c0-1.7,1.4-3.1,3.1-3.1h12.1         C96.1,56.6,97.5,58,97.5,59.6z"/></g></g></g></g><g><g><g><g><path class="st2" d="M83.6,59.6v38.5c0,1.7,0.8,3.1,1.8,3.1h-3c-1.7,0-3.1-1.4-3.1-3.1V59.6c0-1.7,1.4-3.1,3.1-3.1h3         C84.4,56.6,83.6,58,83.6,59.6z"/></g></g></g><g><g><g><path class="st11" d="M97.5,59.6v38.5c0,1.7-1.4,3.1-3,3.1h-3c1,0,1.7-1.4,1.7-3.1V59.6c0-1.7-0.8-3.1-1.7-3.1h3         C96.1,56.6,97.5,58,97.5,59.6z"/></g></g></g></g></g><g><g><g><g><g><g><path class="st4" d="M67.8,82.2l1.8,6.7c0.1,0.4-0.2,0.8-0.6,0.8h-8c-0.4,0-0.7-0.4-0.6-0.8l1.8-6.7          c-2.4-1.1-3.9-3.7-3.5-6.6c0.4-2.8,2.7-5.1,5.5-5.4c3.8-0.4,7.1,2.5,7.1,6.3C71.3,79,69.9,81.1,67.8,82.2z"/></g></g></g></g></g><g><g><g><g><g><g><path class="st6" d="M62.8,71.3c-0.9,0.1-1.7,0.4-2.4,0.8c1-1.1,2.3-1.8,3.8-2c3.8-0.4,7.1,2.6,7.1,6.3           c0,2.3-1.3,4.4-3.1,5.5c1-1.1,1.7-2.6,1.7-4.3C69.9,73.9,66.6,70.9,62.8,71.3z"/></g></g></g></g></g></g></g></g></g></svg>